HIERARCHY
ROOT Hips
{
  OFFSET 0.000000 0.000000 0.000000
  CHANNELS 6 Xposition Yposition Zposition Xrotation Yrotation Zrotation
  JOINT Spine
  {
    OFFSET 0.000000 5.000000 0.000000
    CHANNELS 3 Xrotation Yrotation Zrotation
    JOINT Chest
    {
      OFFSET 0.000000 5.000000 0.000000
      CHANNELS 3 Xrotation Yrotation Zrotation
      JOINT Neck
      {
        OFFSET 0.000000 5.000000 0.000000
        CHANNELS 3 Xrotation Yrotation Zrotation
        JOINT Head
        {
          OFFSET 0.000000 5.000000 0.000000
          CHANNELS 3 Xrotation Yrotation Zrotation
          End Site
          {
            OFFSET 0.0 0.0 5.0
          }
        }
      }
      JOINT LeftShoulder
      {
        OFFSET -5.000000 0.000000 0.000000
        CHANNELS 3 Xrotation Yrotation Zrotation
        JOINT LeftArm
        {
          OFFSET -5.000000 0.000000 0.000000
          CHANNELS 3 Xrotation Yrotation Zrotation
          JOINT LeftForeArm
          {
            OFFSET -5.000000 0.000000 0.000000
            CHANNELS 3 Xrotation Yrotation Zrotation
            JOINT LeftHand
            {
              OFFSET -5.000000 0.000000 0.000000
              CHANNELS 3 Xrotation Yrotation Zrotation
              End Site
              {
                OFFSET 0.0 0.0 5.0
              }
            }
          }
        }
      }
      JOINT RightShoulder
      {
        OFFSET 5.000000 0.000000 0.000000
        CHANNELS 3 Xrotation Yrotation Zrotation
        JOINT RightArm
        {
          OFFSET 5.000000 0.000000 0.000000
          CHANNELS 3 Xrotation Yrotation Zrotation
          JOINT RightForeArm
          {
            OFFSET 5.000000 0.000000 0.000000
            CHANNELS 3 Xrotation Yrotation Zrotation
            JOINT RightHand
            {
              OFFSET 5.000000 0.000000 0.000000
              CHANNELS 3 Xrotation Yrotation Zrotation
              End Site
              {
                OFFSET 0.0 0.0 5.0
              }
            }
          }
        }
      }
    }
  }
  JOINT LeftUpLeg
  {
    OFFSET -3.535534 -3.535534 0.000000
    CHANNELS 3 Xrotation Yrotation Zrotation
    JOINT LeftLeg
    {
      OFFSET 0.000000 -5.000000 0.000000
      CHANNELS 3 Xrotation Yrotation Zrotation
      JOINT LeftFoot
      {
        OFFSET 0.000000 -5.000000 0.000000
        CHANNELS 3 Xrotation Yrotation Zrotation
        JOINT LeftToeBase
        {
          OFFSET 0.000000 0.000000 5.000000
          CHANNELS 3 Xrotation Yrotation Zrotation
          End Site
          {
            OFFSET 0.0 0.0 5.0
          }
        }
      }
    }
  }
  JOINT RightUpLeg
  {
    OFFSET 3.535534 -3.535534 0.000000
    CHANNELS 3 Xrotation Yrotation Zrotation
    JOINT RightLeg
    {
      OFFSET 0.000000 -5.000000 0.000000
      CHANNELS 3 Xrotation Yrotation Zrotation
      JOINT RightFoot
      {
        OFFSET 0.000000 -5.000000 0.000000
        CHANNELS 3 Xrotation Yrotation Zrotation
        JOINT RightToeBase
        {
          OFFSET 0.000000 0.000000 5.000000
          CHANNELS 3 Xrotation Yrotation Zrotation
          End Site
          {
            OFFSET 0.0 0.0 5.0
          }
        }
      }
    }
  }
}
MOTION
Frames: 13
Frame Time: 0.033333
0.000000 0.000000 0.000000 0.000000 0.000000 0.000000 0.000000 0.000000 0.000000 0.000000 0.000000 0.000000 0.000000 0.000000 0.000000 0.000000 0.000000 0.000000 0.000000 0.000000 0.000000 0.000000 0.000000 0.000000 0.000000 0.000000 0.000000 0.000000 0.000000 0.000000 0.000000 0.000000 0.000000 0.000000 0.000000 0.000000 0.000000 0.000000 0.000000 0.000000 0.000000 0.000000 0.000000 0.000000 0.000000 0.000000 0.000000 0.000000 0.000000 0.000000 0.000000 0.000000 0.000000 0.000000 0.000000 0.000000 0.000000 0.000000 0.000000 0.000000 0.000000 0.000000 0.000000 0.000000 0.000000 0.000000
0.000000 0.000000 0.000000 0.000000 0.000000 0.000000 0.000000 0.000000 0.000000 0.000000 0.000000 0.000000 0.000000 0.000000 0.000000 0.000000 0.000000 0.000000 0.000000 0.000000 0.000000 0.000000 0.000000 0.000000 0.000000 0.000000 0.000000 0.000000 0.000000 0.000000 0.000000 0.000000 0.000000 0.000000 0.000000 0.000000 0.000000 0.000000 0.000000 0.000000 0.000000 0.000000 0.000000 0.000000 0.000000 0.000000 0.000000 0.000000 0.000000 0.000000 0.000000 0.000000 0.000000 0.000000 0.000000 0.000000 0.000000 0.000000 0.000000 0.000000 0.000000 0.000000 0.000000 0.000000 0.000000 0.000000
0.000000 0.000000 0.000000 0.000000 0.000000 0.000000 0.000000 0.000000 0.000000 0.000000 0.000000 0.000000 0.000000 0.000000 0.000000 0.000000 0.000000 0.000000 0.000000 0.000000 0.000000 0.000000 0.000000 0.000000 0.000000 0.000000 0.000000 0.000000 0.000000 0.000000 0.000000 0.000000 0.000000 0.000000 0.000000 0.000000 0.000000 0.000000 0.000000 0.000000 0.000000 0.000000 0.000000 0.000000 0.000000 0.000000 0.000000 0.000000 0.000000 0.000000 0.000000 0.000000 0.000000 0.000000 0.000000 0.000000 0.000000 0.000000 0.000000 0.000000 0.000000 0.000000 0.000000 0.000000 0.000000 0.000000
0.000000 0.000000 0.000000 0.000000 0.000000 0.000000 0.000000 0.000000 0.000000 0.000000 0.000000 0.000000 0.000000 0.000000 0.000000 0.000000 0.000000 0.000000 0.000000 0.000000 0.000000 0.000000 0.000000 0.000000 0.000000 0.000000 0.000000 0.000000 0.000000 0.000000 0.000000 0.000000 0.000000 0.000000 0.000000 0.000000 0.000000 0.000000 0.000000 0.000000 0.000000 0.000000 0.000000 0.000000 0.000000 0.000000 0.000000 0.000000 0.000000 0.000000 0.000000 0.000000 0.000000 0.000000 0.000000 0.000000 0.000000 0.000000 0.000000 0.000000 0.000000 0.000000 0.000000 0.000000 0.000000 0.000000
0.000000 0.000000 0.000000 7.615938 -19.880113 -131.593709 -168.950144 -27.917605 -2.754615 156.142263 -9.636124 -177.959683 -86.452175 2.618324 2.785625 0.000000 0.000000 0.000000 70.563857 -9.344567 -166.822408 130.884868 -33.919761 -164.133743 109.406896 -36.472409 -153.740182 0.000000 0.000000 0.000000 -129.052526 -17.772155 171.480302 108.202236 11.821600 171.428476 102.347514 24.262017 160.371689 0.000000 0.000000 0.000000 -169.334277 -27.009423 -2.568534 -146.427044 24.757617 7.575748 -134.870198 19.879440 -45.732327 0.000000 0.000000 0.000000 -165.236783 -35.415619 -4.737314 -152.608754 1.289836 0.314336 -133.379452 -33.717036 70.236413 0.000000 0.000000 0.000000
0.000000 0.000000 0.000000 7.247038 -18.927697 -131.603400 -168.874194 -24.672440 -2.440492 156.117048 -7.091990 -178.498289 -86.668209 -2.983870 -3.162544 0.000000 0.000000 0.000000 60.629423 -7.859481 -166.598355 130.066607 -33.258735 -164.166287 108.944317 -36.763209 -153.304469 0.000000 0.000000 0.000000 -91.911736 -9.944714 170.380130 123.497473 16.435582 171.125101 114.641371 29.227940 161.009235 0.000000 0.000000 0.000000 -168.231119 -30.397329 -3.207691 -147.395745 23.824459 7.060931 -134.407998 20.525000 -46.612411 0.000000 0.000000 0.000000 -164.023154 -40.138654 -5.869977 -152.694584 -1.589884 -0.386205 -133.414096 -33.833460 70.478550 0.000000 0.000000 0.000000
0.000000 0.000000 0.000000 6.495189 -16.974176 -131.639186 -169.076632 -23.243171 -2.253073 155.433251 -4.819271 -178.950104 -86.159941 -9.046608 -9.671313 0.000000 0.000000 0.000000 61.091907 -7.914286 -166.628474 131.908567 -33.408182 -164.747292 105.950281 -36.677686 -151.926802 0.000000 0.000000 0.000000 -47.081227 -4.770808 169.076008 130.323794 20.095790 170.622663 118.079058 33.319040 159.644966 0.000000 0.000000 0.000000 -167.644221 -34.002371 -3.791145 -147.879485 22.009932 6.408702 -133.656127 20.739838 -46.296306 0.000000 0.000000 0.000000 -163.221639 -42.314711 -6.533252 -152.752233 -3.294495 -0.798683 -132.964143 -33.875910 69.969515 0.000000 0.000000 0.000000
0.000000 0.000000 0.000000 5.296594 -13.850632 -131.695196 -169.390591 -21.932184 -2.061417 134.759621 -1.787046 -179.255336 -83.342739 -14.634594 -16.418734 0.000000 0.000000 0.000000 46.719214 -5.741682 -166.754224 133.604548 -32.080720 -165.951690 102.087697 -35.017942 -151.382029 0.000000 0.000000 0.000000 -11.476842 -1.322523 166.896167 137.101871 22.796434 170.942505 122.920074 36.372173 159.740215 0.000000 0.000000 0.000000 -167.037788 -38.721601 -4.571849 -148.359303 20.406710 5.839197 -132.667684 21.651525 -47.145751 0.000000 0.000000 0.000000 -162.866587 -43.621991 -6.899895 -153.093618 -4.423026 -1.058549 -132.334732 -33.985391 69.351029 0.000000 0.000000 0.000000
0.000000 0.000000 0.000000 4.545225 -11.889243 -131.726126 -169.536597 -21.001840 -1.944672 85.882551 -0.486496 -179.477224 -82.519431 -15.750928 -17.920741 0.000000 0.000000 0.000000 39.451966 -4.715290 -166.899446 133.920702 -31.333687 -166.395952 100.647395 -34.385266 -151.210176 0.000000 0.000000 0.000000 -10.218398 -1.258277 165.996371 137.512169 23.041692 170.938618 123.335084 36.775903 159.677098 0.000000 0.000000 0.000000 -166.711411 -40.609619 -4.935971 -148.599116 19.352481 5.488013 -132.004760 22.283428 -47.729462 0.000000 0.000000 0.000000 -162.630109 -44.109529 -7.082577 -153.039977 -5.137946 -1.232394 -132.248208 -34.321087 69.801782 0.000000 0.000000 0.000000
0.000000 0.000000 0.000000 3.792207 -9.920347 -131.758644 -169.380471 -19.624973 -1.841812 -148.073643 1.181904 -179.661905 -80.319833 -17.969429 -21.224344 0.000000 0.000000 0.000000 28.725448 -3.321110 -167.081480 133.484520 -29.987186 -166.867005 98.952869 -33.289841 -151.329239 0.000000 0.000000 0.000000 3.732417 0.493124 164.952606 140.271628 24.063237 171.193534 125.669591 38.516829 159.670979 0.000000 0.000000 0.000000 -166.374426 -40.484919 -5.045255 -148.830712 19.037097 5.355245 -131.154162 22.899372 -48.075478 0.000000 0.000000 0.000000 -162.478672 -43.793614 -7.088738 -152.894548 -5.582170 -1.346598 -132.095408 -34.456061 69.832572 0.000000 0.000000 0.000000
0.000000 0.000000 0.000000 3.218531 -8.421546 -131.772730 -169.176643 -18.276385 -1.746082 -175.073953 2.365982 -179.898214 -78.847172 -19.421114 -23.516829 0.000000 0.000000 0.000000 21.354546 -2.376477 -167.444130 133.951397 -28.584364 -167.642091 97.849549 -32.157438 -151.795741 0.000000 0.000000 0.000000 7.879395 1.092517 164.236084 139.994321 23.752181 171.244664 126.126462 38.560023 159.842139 0.000000 0.000000 0.000000 -166.133772 -41.065178 -5.215255 -148.797629 19.323555 5.443299 -130.586496 23.154088 -48.001482 0.000000 0.000000 0.000000 -162.129419 -43.778451 -7.229197 -152.604617 -5.535443 -1.350147 -131.301866 -34.706471 69.250161 0.000000 0.000000 0.000000
0.000000 0.000000 0.000000 2.948793 -7.716105 -131.780444 -169.125647 -18.230504 -1.749879 -179.541084 2.292249 -179.990819 -78.772102 -19.189228 -23.268728 0.000000 0.000000 0.000000 28.315937 -3.047613 -167.960338 137.223211 -29.443548 -168.248781 100.199993 -33.260692 -151.955187 0.000000 0.000000 0.000000 -4.242686 -0.583340 164.349559 138.429587 22.986035 171.173777 124.426083 37.486642 159.724531 0.000000 0.000000 0.000000 -166.032931 -41.655282 -5.335913 -148.175624 19.243846 5.534036 -129.751628 23.221084 -47.319667 0.000000 0.000000 0.000000 -161.779502 -43.263290 -7.277365 -151.526041 -5.177385 -1.314473 -129.893348 -34.868059 67.787484 0.000000 0.000000 0.000000
0.000000 0.000000 0.000000 2.812705 -7.360453 -131.782560 -169.117702 -18.614313 -1.788676 172.815739 2.034257 179.872283 -79.064160 -18.547918 -22.384012 0.000000 0.000000 0.000000 35.131841 -3.635432 -168.550371 138.555604 -30.035691 -168.409276 101.118281 -33.763111 -151.966660 0.000000 0.000000 0.000000 -12.628075 -1.711781 164.621474 136.945448 22.331188 171.095962 123.230524 36.682571 159.687858 0.000000 0.000000 0.000000 -166.023544 -42.125513 -5.405468 -148.015446 19.426773 5.617160 -129.705351 23.091605 -47.034035 0.000000 0.000000 0.000000 -161.412682 -43.825271 -7.532220 -151.313547 -4.945057 -1.265187 -129.571964 -34.737201 67.189621 0.000000 0.000000 0.000000
